<?xml version="1.0" encoding="utf-8"?>
<!-- Generator: Adobe Illustrator 22.0.1, SVG Export Plug-In . SVG Version: 6.00 Build 0)  -->
<svg version="1.1" id="Ebene_1" xmlns="http://www.w3.org/2000/svg" xmlns:xlink="http://www.w3.org/1999/xlink" x="0px" y="0px"
	 viewBox="0 0 593 258.4" style="enable-background:new 0 0 593 258.4;" xml:space="preserve">
<g>
	<path d="M92.3,180.7c-0.5,9.2-12.6,25.9-27.1,41.5c-6.9,7.4-6.5,19,0.9,26c3.5,3.3,8,4.9,12.5,4.9c4.9,0,9.8-2,13.4-5.9
		c16.6-17.9,26.8-33.3,32.8-46.4c0.2-0.4,0.3-0.8,0.5-1.1c2.2,0.9,5.6,2.6,10.4,6.1c8.7,6.3,21.8,18.2,38.9,40
		c6,7.7,17.1,9.1,24.9,3.1c0,0,0.1-0.1,0.1-0.1c7.7-6.1,9.1-17.2,3-25c-17.8-22.7-31.5-42.3-43-53.8c2.2-3.4,3.9-7.1,5.2-11.1
		c2.1-6.5,2-16.1,1-26.1L153,136c-0.9,0.2-1.9,0.4-2.8,0.4h0c-3.8,0-7.4-1.9-9.5-5l-26.7-29.1l-0.1-0.1l-0.1-0.1
		c-1.7-2.6-1.4-6.2-0.7-8.8c1-4.4,4-10.2,7.9-12.5c1.8-1.1,4.3-1.6,7.1-1.6c4.9,0,11.4,1.8,14.1,5.8l0.1,0.1l0.1,0.1l13.3,26.7
		l6.6-1.7c-1.5-7.5-3.1-13.5-3.7-16.1c-1.7-8.5-6.8-15.8-18-20.4c-0.3-0.1-0.5-0.2-0.8-0.3c-4.6-1.8-9-2.6-13.2-2.4
		c-0.4,0-0.8,0-1.2,0l-10.9,0.7l-31.9,2c0,0,0,0,0,0l0,0c-0.1,0-0.3,0-0.4,0c-0.2,0-0.4,0-0.5,0.1c-1.3,0.2-2.5,0.7-3.5,1.3
		c-0.2,0.1-0.3,0.2-0.5,0.4c-0.1,0.1-0.2,0.1-0.2,0.2c-0.2,0.2-0.4,0.3-0.6,0.5c0,0-0.1,0.1-0.1,0.1c-0.2,0.2-0.3,0.3-0.5,0.5
		c-0.1,0.1-0.1,0.1-0.2,0.2c-0.1,0.1-0.2,0.3-0.3,0.4c-0.1,0.1-0.2,0.2-0.2,0.3c-0.1,0.1-0.1,0.2-0.2,0.3c-0.1,0.1-0.2,0.3-0.3,0.4
		c0,0.1-0.1,0.2-0.1,0.2c-0.1,0.2-0.2,0.4-0.3,0.6c0,0.1,0,0.1-0.1,0.2c-0.1,0.2-0.2,0.4-0.3,0.7c0,0.1,0,0.2-0.1,0.3
		c-0.1,0.2-0.1,0.4-0.2,0.6c-0.2,0.9-0.3,1.9-0.2,2.8c0,0,0,0,0,0c0,0.1,0,0.1,0,0.2c0,0.2,0,0.5,0.1,0.8c0.1,0.3,0.1,0.6,0.2,0.9
		l6.7,25.4c3-6.4,6.6-12.9,10.7-18.9l3.8-0.2c-12.3,17.2-20,40.2-23.2,50.2c-4.7,14.6,5,23.6,14.9,28.4c0.2,0.1,0.4,0.2,0.5,0.3
		C90.2,174.8,92.4,178.5,92.3,180.7z"/>
	<path d="M151.5,76.2c10.2,8.9,25.6,7.8,34.5-2.3c2.1-2.4,3.6-5,4.6-7.8l9.1,7.9l-1.3-14.7l-35.1-30.7l-6.3,7.2
		c-2.9,1.4-5.5,3.4-7.8,5.9C140.3,51.9,141.3,67.4,151.5,76.2z"/>
	<polygon points="199.6,57.6 214.4,52.8 169.8,21.1 164.6,27 	"/>
	<path d="M112.6,47.6c1.5,3,5.5,2.2,11-0.7c5.5-2.8,12-11.3,12-11.3s-12.1-2.3-17.6,0.6C112.6,39.1,111.1,44.6,112.6,47.6z"/>
	<path d="M131.3,12c5,3.6,15.4,5.7,15.4,5.7S143.4,6,138.5,2.3c-5-3.6-10.6-2.5-12.6,0.2C123.9,5.2,126.4,8.4,131.3,12z"/>
	<path d="M99.2,26.2c6.2,0.3,16.1-3.7,16.1-3.7s-9.3-8-15.5-8.3c-6.2-0.3-10.2,3.8-10.4,7.1C89.2,24.6,93,25.9,99.2,26.2z"/>
	<path d="M487.1,87.6c-7.6,0-16.7,0.8-26,3.6c-9.4,2.8-19.1,7.7-27.5,15.7c-0.3,0.3-0.5,0.6-0.8,0.9c-12.9-2.8-29.3-1.4-43.4,15.3
		c-28.6,33.8,29.2,63.3,37.5,37c6-18.8-2-35.4,7.3-41c1.4,1.1,3.2,1.7,4.9,1.7c2,0,4-0.7,5.5-2.2c0.5-0.5,1.1-1,1.6-1.4
		c2.7,0.1,5.8,0.5,9.4,1c0,0-2.2-1.7-6-3.8c5-3.6,10.5-6.1,16-7.8c5.9-1.8,11.9-2.6,17.3-2.9c-9.8,18.9-13.3,31.6-14.1,54
		c0.3,7.9,2.9,12.8,6.6,15.8c-0.5,5.4-2.1,13.5-6.9,22.1c-6.3,11.2-17.7,23.7-41.5,32.8c-6.5,2.5-9.7,9.7-7.2,16.1
		c1.9,5,6.6,8.1,11.7,8.1c1.5,0,3-0.3,4.4-0.8c28.7-10.8,45.6-27.9,54.5-44.1c5-9,7.6-17.6,8.9-24.7l21.2,7.3l13,44.7
		c1.9,6.6,8.9,10.4,15.5,8.5c6.6-1.9,10.4-8.9,8.5-15.5h0l-14.8-51c-1.1-3.9-4.1-7-7.9-8.3l-30.5-10.5c1.4-10.8,5-21.9,8.5-31.5
		c-0.9-0.6-1.9-1.1-2.8-1.7c-7.1-4.6-11.4-9.2-12.6-10.5c-1.8-2.1-2.7-4.6-2.5-7.3c0.2-2.7,1.4-5.1,3.4-6.9c1.8-1.6,4.2-2.5,6.6-2.5
		c2.9,0,5.6,1.2,7.5,3.4l0.4,0.4c0.5,0.5,1,1,1.6,1.5c1.1,1,2.6,2.3,4.6,3.7c0.4-7.1-2.2-13.9-7.9-16.2c-1.2-0.5-2.5-0.9-3.8-1.1
		c0,0,0,0,0,0C507,89.5,498.8,87.6,487.1,87.6z M396,123.4c0,0-4.9,8.3-5.7,13.7c-0.7,5.5-1.7,7.6,6.2,23
		C375.1,144.8,396,123.4,396,123.4z"/>
	<ellipse transform="matrix(0.3732 -0.9277 0.9277 0.3732 268.038 543.5151)" cx="536.3" cy="73.4" rx="22.5" ry="22.5"/>
	<path d="M511.4,103c-0.2-0.2-0.3-0.3-0.4-0.4c0,0-0.1-0.1-0.1-0.1c0,0,0,0,0,0c-2.9-3.3-8-3.6-11.3-0.7c-3.3,2.9-3.7,8-0.7,11.3
		c0.3,0.4,4.6,5.2,12.2,10.2c7.6,4.9,18.6,10.1,32.2,10.1c0,0,0.1,0,0.1,0c10.3,0,21.8-3.1,33.5-10.9c3.7-2.4,4.7-7.4,2.2-11.1
		c-2.4-3.7-7.4-4.7-11.1-2.2c-9.4,6.2-17.6,8.2-24.8,8.2c-9.5,0-17.6-3.6-23.5-7.5c-2.9-1.9-5.2-3.8-6.8-5.2
		C512.4,104,511.8,103.4,511.4,103z"/>
	<rect x="338.7" y="74.5" width="110" height="3.7"/>
	<rect x="352.1" y="84.3" width="51.3" height="3.7"/>
	<rect x="381.4" y="64.7" width="51.3" height="3.7"/>
	<rect x="188.2" y="162" width="186" height="6"/>
	<rect y="162" width="61.6" height="6"/>
	<rect x="554.2" y="162" width="38.7" height="6"/>
	<path d="M257.1,115.9h32.1v-1v-13.3h-15.1V91.4h15.1v-1V77.1h-32.1v12.3H242v14.3h15.1V115.9z M287.2,113.9h-28.1v-10.3h15.1v0
		h13.1L287.2,113.9z M259.1,79.1h28.1l0,10.3h-13.1v0h-15.1L259.1,79.1L259.1,79.1z M244,101.6V91.4h13.1v0h15.1v10.3h-15.1l0,0H244
		z"/>
	<path d="M490.6,47.6V36.4h15.1v-1V22.1h-32.1v12.3h-15.1v14.3h32.1V47.6z M475.6,24.1h28.1v10.3h-13.1l0,0h-15.1L475.6,24.1
		L475.6,24.1z M460.5,46.6V36.4h28.1l0,10.3L460.5,46.6L460.5,46.6z"/>
	<path d="M154.4,114l-14-28.1c-2.9-4.4-13.5-6.4-18.5-3.5s-9.4,14.1-6.5,18.5v0l26.8,29.2c1.8,2.7,4.8,4.3,7.9,4.3
		c0.8,0,1.6-0.1,2.3-0.3l49.5-12.5c5.1-1.3,8.2-6.4,6.9-11.5c-1.3-5.1-6.4-8.2-11.5-6.9L154.4,114z"/>
	<path d="M40.9,224.5c-1.1-0.2-2.8,1.3-1,1.6c7.7,1.2,14.5-4.2,13.8-12.3c-0.6-7.6-6.7-10.5-13.2-8.7c0.5-4.3-0.2-9.1-4.3-11.5
		c-3.3-2-7.6-2.2-11.3-1.1c-7.5,2.1-12.2,8.4-8.1,14.7c-5.4-0.7-11.2,1.3-11.7,7.7c-0.4,5.5,2.9,9.3,7.6,9.4
		c-3.5,3.1-4,7.8,0.4,11.5c5.2,4.5,12.5,2.1,16.9-2.2c0.1-0.1,0.2-0.2,0.2-0.3c4.4,3.9,10.3,6.3,16,6.9c0.3,0,1.7-2.1,1.4-2.3
		c-3.6-3.6-9.9-9.6-9.9-15.1c0,0.3-1.5,1.4-1.5,2.2c-0.1,4.2,3.4,8.5,6.7,12c-5.5-1.5-10.8-4.6-14.3-9.2c0,0-1.8,1.9-1.4,2.3
		c0.7,0.9,1.4,1.7,2.2,2.5c-0.6-0.1-1.4,0.1-1.7,0.4c-3.8,3.8-10,5.3-13.7,0.4c-2.8-3.7-1.8-7.8,2.5-9.8c1.4-0.6,0.6-1.7-0.7-1.3
		c-4.9,1.5-8.6-2.3-8.2-7.2c0.5-6.5,5.8-7.6,11.3-5.5c0.5,0.2,2.8-0.5,2.1-1.2c-2.4-2.4-4.6-6.1-2.7-9.5c1.5-2.7,4.4-4.5,7.4-5.1
		c8.7-1.9,13.1,4.6,11.9,12.7c-0.1,0.9,1.4,0.7,1.8,0.5C53.4,201,55.4,226.7,40.9,224.5z"/>
	<path d="M22.9,223.9c-0.6,1.8,0.7,0.7,1.1-0.3c1.7-4.8,7.4-6.4,11.5-3.7c0.5,0.3,1.8-2.1,1.2-2.5C30.9,213.7,24.9,218.2,22.9,223.9
		z"/>
</g>
</svg>
