<?xml version="1.0" encoding="utf-8"?>
<!-- Generator: Adobe Illustrator 22.0.1, SVG Export Plug-In . SVG Version: 6.00 Build 0)  -->
<svg version="1.1" id="Ebene_1" xmlns="http://www.w3.org/2000/svg" xmlns:xlink="http://www.w3.org/1999/xlink" x="0px" y="0px"
	 viewBox="0 0 93.7 83.7" style="enable-background:new 0 0 93.7 83.7;" xml:space="preserve">
<path d="M51,1.2c-2,0-3.6,1.6-3.6,3.6S49,8.4,51,8.4c18.5,0,33.5,15,33.5,33.5c0,18.5-15,33.5-33.5,33.5c-17,0-31-12.7-33.2-29.1
	l2.5,2.5c0.7,0.7,1.6,1,2.5,1s1.8-0.3,2.5-1c1.4-1.4,1.4-3.7,0-5.1l-8.9-8.9c-1.4-1.4-3.7-1.4-5.1,0l-8.9,8.9
	c-1.4,1.4-1.4,3.7,0,5.1c1.4,1.4,3.7,1.4,5.1,0l3-3c2,20.6,19.4,36.7,40.5,36.7c22.4,0,40.7-18.3,40.7-40.7
	C91.7,19.5,73.4,1.2,51,1.2z"/>
<path d="M37.5,61.7c-1,0-1.9-0.4-2.7-1.1c-1.5-1.5-1.5-3.9,0-5.4l11.9-11.9v-24c0-2.1,1.7-3.8,3.8-3.8c2.1,0,3.8,1.7,3.8,3.8V45
	c0,1-0.4,2-1.1,2.7l-13,13C39.4,61.4,38.4,61.7,37.5,61.7z"/>
<path d="M78,44.3h-3.9c-1.4,0-2.5-1.1-2.5-2.5s1.1-2.5,2.5-2.5H78c1.4,0,2.5,1.1,2.5,2.5S79.4,44.3,78,44.3z"/>
<path d="M68.6,63.9c-0.6,0-1.3-0.2-1.8-0.7l-2.8-2.8c-1-1-1-2.6,0-3.5c1-1,2.6-1,3.5,0l2.8,2.8c1,1,1,2.6,0,3.5
	C69.9,63.6,69.3,63.9,68.6,63.9z"/>
<path d="M49.1,72c-1.4,0-2.5-1.1-2.5-2.5v-3.9c0-1.4,1.1-2.5,2.5-2.5s2.5,1.1,2.5,2.5v3.9C51.6,70.9,50.4,72,49.1,72z"/>
<path d="M65.9,27.5c-0.6,0-1.3-0.2-1.8-0.7c-1-1-1-2.6,0-3.5l2.8-2.8c1-1,2.6-1,3.5,0c1,1,1,2.6,0,3.5l-2.8,2.8
	C67.2,27.2,66.5,27.5,65.9,27.5z"/>
</svg>
